<?xml version="1.0" standalone="no"?>
<!DOCTYPE svg PUBLIC "-//W3C//DTD SVG 20010904//EN"
 "http://www.w3.org/TR/2001/REC-SVG-20010904/DTD/svg10.dtd">
<svg version="1.0" xmlns="http://www.w3.org/2000/svg"
 width="691.000000pt" height="217.000000pt" viewBox="0 0 691.000000 217.000000"
 preserveAspectRatio="xMidYMid meet">

<g transform="translate(0.000000,217.000000) scale(0.100000,-0.100000)"
fill="#000000" stroke="none">
<path d="M3432 2003 c3 -103 4 -108 26 -111 21 -3 22 -1 22 88 l0 91 578 -2
577 -1 148 -147 c104 -103 147 -152 147 -169 0 -14 8 -26 21 -30 19 -7 19 -9
5 -21 -9 -7 -13 -17 -10 -23 3 -5 0 -15 -6 -23 -9 -10 -10 -30 -4 -62 4 -27 6
-54 5 -60 -3 -20 13 -15 27 8 10 15 13 55 11 137 l-2 117 -156 158 c-86 86
-159 157 -163 157 -5 0 -8 -8 -8 -17 -1 -17 -1 -17 -14 0 -12 16 -53 17 -610
17 l-597 0 3 -107z"/>
<path d="M5337 2090 c-16 -19 -16 -20 7 -20 13 0 34 9 47 20 l24 19 -30 1
c-18 0 -37 -8 -48 -20z"/>
<path d="M5495 2100 c-3 -6 4 -10 17 -10 13 0 29 -5 35 -11 12 -12 58 -2 74
17 10 12 1 14 -54 14 -36 0 -69 -4 -72 -10z"/>
<path d="M5738 2089 c-18 -19 -12 -19 341 -19 l359 0 58 -60 c31 -33 62 -57
68 -53 6 3 8 2 3 -2 -9 -10 21 -45 39 -45 36 0 19 29 -62 111 l-89 89 -350 -1
c-332 -1 -351 -2 -367 -20z"/>
<path d="M120 1865 l0 -224 58 -3 57 -3 0 -255 c0 -140 -1 -384 -4 -542 l-4
-288 -54 0 -53 0 0 -225 0 -225 613 0 613 0 162 163 162 162 0 155 c0 85 -4
150 -8 144 -4 -6 -15 -13 -24 -17 -16 -6 -18 -22 -18 -134 l0 -128 -148 -148
-148 -147 -482 -1 c-442 0 -482 -2 -491 -17 -9 -16 -10 -16 -16 1 -6 14 -20
17 -91 17 l-84 0 2 178 3 177 58 3 57 3 0 589 0 589 -57 3 -58 3 -3 173 -2
172 392 1 c216 1 479 2 583 4 l190 2 148 -146 147 -147 0 -239 0 -240 -75 -75
-75 -75 75 -75 75 -74 0 -113 0 -113 25 2 25 2 0 120 0 119 -67 69 -66 69 66
67 67 68 0 254 0 255 -158 158 -157 157 -618 0 -617 0 0 -225z"/>
<path d="M1820 1870 c0 -194 2 -221 16 -227 30 -11 37 25 35 208 -2 165 -1
180 16 186 19 8 161 9 476 6 l197 -3 0 -175 0 -174 -57 -3 -58 -3 -2 -592 -3
-593 230 0 230 0 0 60 0 60 175 0 175 0 0 -235 0 -235 -685 0 -685 0 0 175 0
174 58 3 57 3 0 82 c-1 87 -5 99 -30 90 -11 -5 -15 -22 -15 -66 l0 -60 -62 -3
-63 -3 -3 -223 -2 -222 740 0 740 0 0 285 0 285 -225 0 -225 0 0 -60 0 -60
-175 0 -175 0 0 545 0 545 55 0 55 0 0 225 0 225 -395 0 -395 0 0 -220z"/>
<path d="M5420 2078 c0 -4 19 -8 42 -8 23 0 38 3 34 7 -10 10 -76 11 -76 1z"/>
<path d="M5243 2008 c-31 -33 -32 -107 -2 -126 12 -7 23 -11 25 -9 3 3 4 39 2
82 l-3 77 -22 -24z"/>
<path d="M3542 1888 l3 -113 57 3 57 4 3 -60 3 -60 85 26 c82 25 109 40 90 52
-13 8 259 90 304 92 37 1 73 -23 61 -42 -7 -12 50 -20 139 -20 l82 0 57 -58
57 -58 0 -135 0 -135 -63 -62 -63 -62 -91 0 c-86 0 -91 -1 -86 -20 4 -15 0
-20 -15 -20 -11 0 -30 -9 -43 -19 l-24 -20 23 -16 c25 -18 30 -45 7 -45 -8 0
-15 5 -15 10 0 6 -9 10 -21 10 -13 0 -18 4 -14 13 4 6 -3 1 -14 -13 l-21 -25
0 23 c0 12 9 30 20 39 11 10 20 22 20 27 0 5 7 14 17 21 24 18 7 35 -36 35
-29 0 -43 -6 -54 -22 l-16 -23 0 23 c-1 18 -7 22 -31 22 l-30 0 -2 88 c-1 48
-1 102 1 120 3 43 -18 50 -74 23 -46 -21 -105 -28 -105 -12 0 5 30 22 68 37
72 31 112 60 112 81 0 7 -8 13 -17 13 -9 0 -26 9 -38 20 -17 16 -27 19 -46 12
-13 -5 -42 -12 -65 -15 -33 -6 -44 -3 -59 13 -21 23 -35 26 -35 6 0 -7 10 -17
23 -20 21 -6 20 -8 -18 -41 -22 -19 -48 -35 -57 -35 -17 0 -18 -28 -18 -449 0
-350 3 -450 13 -454 10 -4 10 -6 0 -6 -10 -1 -13 -26 -13 -91 l0 -90 -60 0
-60 0 0 -115 0 -115 285 0 285 0 0 116 0 115 -47 -3 c-43 -3 -48 -5 -45 -25 2
-13 -2 -23 -7 -23 -6 0 -14 0 -18 0 -4 0 -9 21 -10 47 -5 65 -19 76 -92 74
-91 -2 -89 14 4 34 6 1 29 3 53 3 l42 2 0 58 c0 61 -13 88 -44 94 -16 3 -15 6
10 33 27 29 28 34 32 158 l4 127 219 0 c120 0 220 -4 223 -9 3 -5 15 -7 26 -4
22 6 28 -12 8 -20 -8 -3 2 -21 29 -48 l42 -44 5 -105 c3 -58 5 -126 5 -152 0
-42 2 -46 21 -41 13 4 26 -1 34 -12 7 -10 18 -15 23 -12 6 4 13 0 17 -8 7 -18
27 -20 24 -2 -4 15 94 17 99 1 2 -7 -11 -10 -34 -9 -21 0 -56 -5 -78 -13 -27
-9 -45 -10 -55 -4 -11 7 -22 6 -34 -3 -15 -11 -18 -34 -21 -169 l-4 -156 224
0 225 0 0 115 0 115 -60 0 -60 0 0 99 c0 70 -4 101 -12 104 -10 4 -10 6 0 6 8
1 12 24 12 81 l0 80 -40 36 c-49 44 -45 58 5 20 l35 -27 0 58 0 59 -90 88
c-49 49 -90 93 -90 98 0 5 7 11 16 15 11 4 14 14 10 34 -6 32 8 48 21 24 7
-12 21 -3 71 46 l62 61 0 77 c0 95 -6 115 -36 131 -33 18 -30 30 6 30 l30 0 0
84 0 83 -80 77 c-44 42 -85 76 -91 76 -19 0 -49 -21 -49 -34 0 -17 -57 -25
-96 -14 -16 5 -73 10 -127 12 -123 6 -133 9 -132 44 0 26 2 27 53 29 29 1 59
7 67 13 9 7 15 8 20 0 3 -5 16 -10 29 -10 12 0 27 -5 33 -11 8 -8 11 -6 10 7
-2 17 5 19 60 18 34 -1 67 -5 73 -9 23 -14 22 5 -1 30 l-24 25 -538 0 -538 0
3 -112z m676 19 c23 1 32 -3 32 -14 0 -10 -6 -13 -17 -9 -9 4 -37 10 -61 13
-29 4 -39 9 -30 14 7 5 20 6 28 2 8 -4 30 -6 48 -6z m577 -367 c4 -7 -3 -8
-22 -4 -38 9 -42 14 -10 14 14 0 29 -5 32 -10z m-778 -370 c-2 -9 0 -24 4 -33
6 -10 5 -18 -1 -22 -6 -4 -8 -11 -5 -16 4 -5 2 -9 -3 -9 -5 0 -15 14 -22 31
-10 24 -10 35 0 54 14 27 34 23 27 -5z m73 -11 c0 -14 -17 -10 -23 5 -4 10 -1
13 9 9 7 -3 14 -9 14 -14z m560 -98 c0 -20 -5 -42 -12 -49 -17 -17 -49 -15
-64 6 -11 15 -16 15 -35 4 -19 -12 -21 -12 -16 1 3 9 2 17 -3 19 -16 6 25 44
65 59 49 19 65 10 65 -40z m46 44 c-3 -9 1 -15 11 -15 13 0 13 -3 3 -16 -11
-13 -15 -13 -27 -1 -14 14 -8 47 9 47 6 0 8 -7 4 -15z m-556 -10 c0 -8 -4 -15
-10 -15 -5 0 -10 7 -10 15 0 8 5 15 10 15 6 0 10 -7 10 -15z m374 -4 c3 -5 -1
-11 -9 -15 -8 -3 -15 -13 -15 -22 0 -8 -5 -14 -12 -12 -18 6 -21 28 -4 28 9 0
16 7 16 15 0 16 16 20 24 6z m-544 -171 c0 -5 -7 -10 -16 -10 -8 0 -12 5 -9
10 3 6 10 10 16 10 5 0 9 -4 9 -10z m-180 -50 c0 -5 14 -11 30 -15 34 -7 34
-8 20 -36 -10 -19 -12 -19 -34 -2 -13 10 -22 23 -19 29 2 6 -3 14 -11 17 -9 4
-16 11 -16 16 0 6 7 8 15 5 8 -4 15 -10 15 -14z m123 -96 c21 -8 23 -34 2 -34
-8 0 -15 5 -15 10 0 6 -7 10 -15 10 -8 0 -15 7 -15 16 0 9 5 13 13 10 6 -3 20
-9 30 -12z m813 -252 c-9 -9 -37 8 -31 18 5 8 11 7 21 -1 8 -6 12 -14 10 -17z
m129 -23 c5 -6 3 -9 -7 -9 -24 0 -48 11 -48 22 0 10 39 1 55 -13z m-116 -200
c-15 -22 -25 -27 -32 -20 -6 6 -19 11 -29 11 -10 0 -18 5 -18 10 0 6 6 10 13
9 39 -5 58 3 69 29 9 21 12 23 15 10 3 -10 -5 -32 -18 -49z m61 41 c0 -5 -5
-10 -11 -10 -5 0 -7 5 -4 10 3 6 8 10 11 10 2 0 4 -4 4 -10z m-170 -44 c0 -11
-19 -15 -25 -6 -3 5 1 10 9 10 9 0 16 -2 16 -4z"/>
<path d="M5330 1956 l0 -45 73 -44 c41 -25 84 -48 97 -52 13 -4 41 -24 64 -44
46 -42 202 -161 210 -161 3 0 6 38 6 85 l0 85 90 0 c50 0 90 4 90 8 0 9 -33
44 -109 116 -40 37 -50 59 -33 70 12 7 76 -41 142 -106 32 -33 66 -58 78 -58
11 0 22 -7 26 -15 4 -11 22 -15 73 -15 l69 0 67 -68 67 -68 0 -67 c0 -64 1
-68 37 -102 35 -33 63 -45 63 -27 0 4 9 18 20 32 l19 25 16 -23 c13 -18 20
-20 36 -12 32 17 9 76 -57 148 -49 52 -12 33 53 -28 63 -59 94 -100 74 -100
-14 0 -61 -52 -61 -67 0 -10 5 -11 19 -3 28 14 33 13 22 -7 -5 -10 -8 -29 -7
-43 1 -20 7 -25 30 -27 15 -1 30 -4 32 -6 3 -2 -9 -19 -27 -38 -26 -28 -30
-39 -25 -67 7 -48 12 -50 46 -17 28 27 30 34 30 102 0 53 -3 72 -12 70 -15 -2
-12 36 3 41 5 2 9 72 9 156 l0 152 -33 32 c-23 22 -39 31 -51 26 -20 -8 -47
23 -41 47 3 8 -10 29 -29 48 l-35 34 -36 -17 c-19 -10 -44 -14 -55 -11 -23 7
-27 25 -6 25 8 0 16 4 18 10 2 5 15 11 30 12 l28 2 -27 28 -27 28 -533 0 -533
0 0 -44z m1055 -97 c-4 -5 -16 -9 -28 -9 -20 0 -20 0 -2 14 21 15 40 12 30 -5z
m35 -36 c8 -16 16 -31 18 -35 2 -5 -4 -8 -12 -8 -9 0 -16 6 -16 14 0 7 -7 19
-15 26 -19 15 -19 30 -2 30 8 0 20 -12 27 -27z m40 23 c0 -3 -4 -8 -10 -11 -5
-3 -10 -1 -10 4 0 6 5 11 10 11 6 0 10 -2 10 -4z m8 -68 c-3 -7 -13 -15 -24
-17 -16 -3 -17 -1 -5 13 16 19 34 21 29 4z"/>
<path d="M233 1961 c4 -23 17 -41 17 -23 0 7 11 12 25 12 22 0 25 -3 19 -26
l-7 -26 114 3 114 4 9 -26 c18 -53 6 -60 -96 -55 -90 5 -146 -4 -99 -17 32 -8
25 -27 -11 -34 l-33 -7 30 -6 30 -5 1 -210 c2 -406 0 -385 30 -385 22 0 25 3
21 23 -4 12 -2 28 2 36 7 10 12 9 27 -7 25 -27 74 -19 74 11 0 16 3 18 12 9 8
-8 17 -8 30 -1 10 5 23 7 29 3 6 -3 18 1 28 11 13 11 27 14 45 9 l26 -6 0 104
c0 58 -3 107 -6 111 -10 9 -34 -4 -34 -19 0 -8 -10 -14 -23 -14 -26 0 -51 -23
-61 -57 -10 -33 -46 -31 -46 2 0 31 -27 45 -87 48 -26 1 -46 5 -45 10 1 4 2
14 2 23 0 10 8 15 23 13 12 -1 34 3 48 9 33 13 130 17 187 7 l42 -8 0 137 0
136 49 0 c52 0 80 17 82 48 1 9 4 4 8 -13 13 -62 101 -30 101 37 0 16 -12 41
-30 61 -16 19 -30 42 -30 51 0 9 -8 16 -18 16 -10 0 -24 6 -30 12 -9 9 -88 14
-292 17 -279 3 -280 3 -277 -18z m237 -665 c0 -11 -19 -15 -25 -6 -3 5 1 10 9
10 9 0 16 -2 16 -4z m110 -36 c0 -4 -13 -10 -30 -12 -28 -4 -29 -3 -14 13 15
17 44 16 44 -1z"/>
<path d="M1145 1973 c-16 -2 -39 -8 -50 -12 -11 -5 -36 -15 -55 -22 -19 -7
-39 -16 -44 -20 -16 -14 225 -160 253 -152 9 2 21 14 26 26 19 43 114 22 115
-26 0 -21 23 -32 48 -22 53 23 95 1 86 -44 -4 -18 0 -32 10 -40 14 -12 16 -9
16 20 -1 30 -17 51 -128 167 l-127 132 -60 -1 c-33 -1 -73 -4 -90 -6z"/>
<path d="M2107 1973 c-23 -22 42 -37 80 -18 l24 12 -32 7 c-41 8 -64 8 -72 -1z"/>
<path d="M1948 1963 c7 -3 16 -2 19 1 4 3 -2 6 -13 5 -11 0 -14 -3 -6 -6z"/>
<path d="M2246 1955 c-3 -10 1 -15 13 -15 10 0 21 7 25 15 3 10 -1 15 -13 15
-10 0 -21 -7 -25 -15z"/>
<path d="M2367 1950 c-3 -12 0 -20 7 -20 6 0 12 9 12 20 0 11 -3 20 -7 20 -4
0 -9 -9 -12 -20z"/>
<path d="M2203 1922 c-6 -11 -8 -25 -3 -32 6 -10 11 -8 19 8 21 39 7 60 -16
24z"/>
<path d="M6643 1907 c4 -10 7 -27 7 -38 0 -10 3 -18 8 -18 4 1 17 1 30 0 19
-1 22 -5 17 -22 -4 -13 -1 -27 10 -39 15 -16 16 -48 13 -300 l-4 -281 -144
-144 -144 -144 -65 -3 c-56 -3 -66 -6 -63 -20 4 -25 -29 -23 -35 2 -4 17 -14
20 -57 20 -43 0 -57 -5 -76 -25 l-23 -25 168 0 169 0 158 161 158 161 0 302 0
302 -43 42 c-24 23 -46 39 -50 36 -4 -4 -7 0 -7 8 0 9 -8 22 -17 29 -15 12
-16 12 -10 -4z"/>
<path d="M1940 1825 l0 -65 48 0 c57 0 71 -8 74 -43 1 -15 8 -29 16 -32 10 -4
10 -10 -2 -34 -17 -32 -13 -41 20 -41 12 0 33 -13 47 -30 14 -16 33 -30 41
-30 11 0 16 -9 16 -30 0 -27 3 -30 30 -30 18 0 30 -5 30 -13 0 -7 14 -23 30
-36 25 -18 28 -25 20 -41 -14 -26 6 -37 30 -15 10 9 24 14 30 10 8 -5 10 9 8
46 -3 47 -7 57 -43 90 -43 41 -42 61 2 38 16 -7 31 -15 36 -17 4 -2 7 19 7 46
0 44 -2 50 -19 45 -11 -3 -31 7 -52 25 -19 16 -44 35 -57 41 -16 9 -21 18 -17
32 5 16 1 19 -23 19 -16 0 -35 7 -42 15 -7 8 -18 15 -26 15 -7 0 -30 7 -51 16
-37 17 -46 20 -111 44 -21 8 -31 18 -28 26 3 8 1 14 -4 14 -6 0 -10 -29 -10
-65z m243 -122 c10 -9 -13 -33 -32 -33 -24 0 -44 16 -37 29 8 12 58 15 69 4z"/>
<path d="M2353 1866 c-18 -11 -33 -26 -33 -31 0 -6 21 -17 47 -24 40 -12 52
-12 87 0 24 8 42 21 44 32 4 17 2 17 -27 3 -19 -10 -32 -12 -36 -6 -3 6 -16
10 -28 11 -12 0 -16 3 -9 6 6 2 12 8 12 13 0 18 -27 16 -57 -4z"/>
<path d="M3431 1765 l-2 -105 61 0 60 0 0 -118 c0 -105 12 -172 30 -172 3 0 6
77 6 170 l2 170 -54 0 -54 0 0 69 c0 66 -1 69 -22 63 -14 -3 -19 -1 -14 6 3 6
2 13 -3 16 -5 3 -9 -39 -10 -99z"/>
<path d="M5255 1830 c-3 -5 -1 -10 4 -10 6 0 11 5 11 10 0 6 -2 10 -4 10 -3 0
-8 -4 -11 -10z"/>
<path d="M5365 1790 c-3 -5 1 -10 9 -10 9 0 16 5 16 10 0 6 -4 10 -9 10 -6 0
-13 -4 -16 -10z"/>
<path d="M1000 1770 c-13 -8 -12 -10 3 -10 9 0 17 5 17 10 0 12 -1 12 -20 0z"/>
<path d="M248 1763 c7 -3 16 -2 19 1 4 3 -2 6 -13 5 -11 0 -14 -3 -6 -6z"/>
<path d="M5461 1751 c-11 -7 -11 -10 0 -15 11 -5 11 -7 2 -12 -10 -4 -13 -125
-13 -556 0 -483 2 -549 15 -544 8 3 14 0 12 -6 -1 -6 13 -16 31 -21 38 -12 44
-41 10 -51 -23 -6 -23 -6 -3 -21 40 -29 95 -90 95 -106 0 -9 -7 -19 -15 -23
-8 -3 -15 -13 -15 -21 0 -11 -6 -15 -18 -11 -10 4 -41 7 -68 8 -27 1 -73 12
-103 25 -29 13 -55 23 -57 23 -2 0 -4 -43 -4 -95 l0 -95 285 0 285 0 0 59 c0
44 -5 65 -20 82 -10 13 -19 20 -20 15 0 -12 -40 24 -40 37 0 5 17 7 40 4 35
-4 40 -2 40 14 0 17 -8 19 -60 19 l-59 0 -3 62 c-3 60 -4 62 -33 68 -52 11
-90 34 -90 55 0 17 7 20 43 20 27 0 47 -5 52 -14 6 -11 9 -11 16 0 10 16 11
32 13 207 l1 122 295 0 c170 0 295 4 295 9 0 5 -22 15 -50 22 -27 7 -50 16
-50 21 0 4 -7 8 -15 8 -8 0 -14 6 -12 13 1 7 -7 11 -20 9 -13 -2 -23 2 -23 7
0 6 -10 11 -22 11 -22 1 -22 2 -5 14 16 12 16 14 1 20 -8 3 -27 6 -40 6 -20 0
-24 4 -20 18 4 13 0 17 -21 19 -15 0 -29 6 -31 12 -2 6 -10 11 -18 11 -8 0
-14 6 -14 13 0 11 -28 14 -122 16 -67 1 -123 3 -124 4 -1 1 -4 54 -6 119 -4
121 -13 148 -49 148 -28 0 -23 19 7 26 36 9 30 49 -8 49 -14 1 -33 7 -42 14
-14 11 -16 11 -16 -3 0 -9 -5 -16 -11 -16 -6 0 -8 9 -4 21 6 17 4 20 -12 15
-25 -8 -83 29 -83 53 0 11 -9 21 -21 24 -18 5 -20 11 -15 32 6 22 3 28 -14 32
-11 3 -20 12 -20 19 0 16 -9 18 -29 5z m189 -1011 c0 -5 -2 -10 -4 -10 -3 0
-8 5 -11 10 -3 6 -1 10 4 10 6 0 11 -4 11 -10z m-56 -51 c5 -5 10 -18 11 -29
2 -18 -4 -20 -57 -20 -62 0 -71 10 -46 50 10 16 20 19 48 14 19 -4 39 -10 44
-15z m61 -248 c3 -5 1 -12 -4 -15 -5 -3 -11 1 -15 9 -6 16 9 21 19 6z m145
-31 c0 -13 -7 -20 -19 -20 -11 0 -23 -4 -26 -10 -8 -13 -25 -13 -25 0 0 6 8
14 18 17 9 4 21 12 25 20 12 20 27 16 27 -7z m-115 -36 c23 -9 0 -24 -35 -23
-14 0 -19 3 -12 6 6 2 10 9 6 14 -6 10 17 12 41 3z m-245 -34 c12 -8 9 -10
-13 -10 -16 0 -26 4 -22 10 8 12 16 12 35 0z"/>
<path d="M4050 1613 c1 -98 1 -98 20 -75 l19 22 4 -22 c2 -13 5 10 6 50 1 63
3 72 19 72 11 0 24 11 30 25 l12 25 -55 0 -55 0 0 -97z m75 67 c3 -5 1 -10 -4
-10 -6 0 -11 5 -11 10 0 6 2 10 4 10 3 0 8 -4 11 -10z"/>
<path d="M4168 1698 c-6 -16 1 -38 11 -38 4 0 13 11 19 25 10 22 9 25 -7 25
-10 0 -21 -6 -23 -12z"/>
<path d="M4338 1691 c-13 -11 -37 -21 -53 -24 -17 -2 -3 -5 29 -6 50 -1 64 -5
88 -28 26 -25 28 -32 28 -113 0 -81 -2 -88 -28 -113 -28 -27 -30 -27 -165 -27
l-137 0 -2 68 c-1 56 -2 60 -7 27 -4 -26 -11 -40 -21 -40 -11 0 -16 -14 -18
-52 -3 -50 -2 -53 21 -53 13 0 36 9 50 20 33 26 47 26 16 0 l-24 -19 135 -1
136 0 47 48 47 48 0 95 0 95 -48 47 c-26 26 -53 47 -58 47 -6 0 -22 -9 -36
-19z"/>
<path d="M5840 1495 l0 -215 173 2 c163 3 172 4 181 24 5 11 18 25 29 30 24
10 30 49 10 65 -10 9 -13 8 -13 -3 0 -8 -13 -26 -28 -41 -28 -27 -30 -27 -165
-27 l-137 0 0 165 0 165 138 0 138 0 28 -29 c27 -28 33 -54 36 -143 0 -11 5
-15 15 -12 8 4 15 1 15 -5 0 -6 -6 -11 -14 -11 -19 0 -27 -37 -9 -44 30 -12
33 -4 33 97 l0 103 -48 47 -48 47 -167 0 -167 0 0 -215z"/>
<path d="M733 1500 l1 -190 166 0 166 0 48 49 48 49 -1 92 0 93 -48 49 -47 48
-167 0 -167 0 1 -190z m354 108 c31 -30 33 -36 33 -105 0 -67 -2 -75 -31 -108
l-31 -35 -139 0 -139 0 0 133 c0 74 3 137 7 140 3 4 65 7 137 7 l130 0 33 -32z"/>
<path d="M1925 1680 c-3 -5 -15 -10 -26 -10 -10 0 -19 -7 -19 -15 0 -10 11
-15 35 -15 l35 0 0 -446 0 -445 23 3 22 3 2 445 c2 245 0 455 -2 468 -4 17
-12 22 -35 22 -16 0 -32 -4 -35 -10z"/>
<path d="M2355 1670 c-3 -5 1 -10 9 -10 9 0 16 5 16 10 0 6 -4 10 -9 10 -6 0
-13 -4 -16 -10z"/>
<path d="M5352 1658 c-18 -18 -16 -227 3 -252 13 -17 13 -22 0 -42 -13 -20
-15 -84 -15 -409 l0 -385 -60 0 -60 0 0 -225 0 -225 395 0 395 0 0 225 0 225
-60 0 -60 0 0 150 0 150 74 0 c71 0 74 1 78 25 l5 25 -103 0 -104 0 0 -200 0
-200 60 0 60 0 0 -175 0 -175 -300 0 c-287 0 -302 -1 -322 -20 -24 -22 -43
-26 -53 -10 -3 5 9 14 27 19 l33 9 -37 1 -38 1 0 175 0 175 55 0 55 0 2 323
c4 523 -1 670 -20 685 -16 12 -16 14 1 26 20 15 22 32 5 40 -10 5 -10 7 0 12
13 6 17 64 4 64 -4 0 -13 -5 -20 -12z"/>
<path d="M1446 1651 c-4 -5 3 -15 15 -21 18 -10 20 -9 17 6 -4 20 -23 30 -32
15z"/>
<path d="M1430 1620 c45 -39 62 -39 22 0 -18 17 -37 30 -44 30 -7 -1 3 -14 22
-30z"/>
<path d="M1536 1627 c-4 -9 -8 -24 -11 -32 -3 -9 -11 -12 -21 -8 -13 5 -10 -3
10 -30 16 -20 32 -34 37 -31 12 7 11 85 -1 104 -8 12 -10 12 -14 -3z"/>
<path d="M3675 1630 c-3 -5 -2 -10 4 -10 5 0 13 5 16 10 3 6 2 10 -4 10 -5 0
-13 -4 -16 -10z"/>
<path d="M1230 1487 l0 -123 -63 -62 -63 -62 -212 0 -213 0 17 -29 c10 -17 23
-27 31 -24 16 6 66 -44 58 -58 -4 -5 1 -9 9 -9 9 0 16 -5 16 -11 0 -8 -15 -10
-52 -4 -29 4 -64 8 -78 10 -14 1 -35 7 -48 14 -13 7 -30 10 -38 7 -8 -3 -14
-1 -14 5 0 6 -4 7 -10 4 -17 -11 -11 -33 10 -40 12 -4 28 -1 37 7 15 11 16 11
10 -4 -4 -12 -2 -18 8 -18 8 0 15 -4 15 -10 0 -5 9 -10 19 -10 11 0 23 -5 26
-10 4 -6 10 -8 15 -5 5 3 22 -2 37 -12 36 -24 240 -33 255 -12 7 11 11 11 15
2 3 -8 22 -13 47 -13 38 0 47 -6 104 -63 60 -61 62 -64 62 -115 0 -52 0 -52
33 -53 45 -1 84 -13 71 -22 -7 -4 -33 -3 -58 2 l-46 8 1 -61 c0 -39 3 -54 8
-42 6 15 9 17 16 6 5 -8 2 -17 -8 -25 -11 -8 -17 -27 -17 -52 0 -29 -6 -46
-24 -62 -14 -13 -29 -36 -35 -52 -8 -24 -7 -30 10 -39 11 -6 17 -15 14 -21 -4
-5 1 -9 10 -9 8 0 19 8 22 17 4 10 13 24 20 31 7 7 14 32 14 55 1 25 4 32 6
19 3 -17 20 -30 59 -48 29 -13 60 -21 69 -18 9 4 15 1 15 -8 0 -9 13 -13 48
-12 83 2 86 2 73 18 -10 12 -9 20 5 41 14 22 17 55 18 230 l1 205 -90 89 -89
90 24 28 c14 15 47 52 74 81 43 45 47 52 29 52 -12 0 -26 -7 -31 -16 -8 -14
-12 -14 -30 -3 -23 14 -29 29 -12 29 6 0 10 -4 10 -10 0 -5 7 -10 15 -10 20 0
20 39 0 46 -14 6 -34 41 -48 85 -4 12 -13 15 -33 11 -24 -4 -26 -2 -21 17 4
17 1 21 -18 21 -13 0 -27 5 -30 10 -4 6 -10 8 -15 5 -16 -10 -50 14 -50 34 0
10 7 24 15 31 13 11 13 15 -1 41 -8 16 -17 29 -19 29 -3 0 -5 -55 -5 -123z
m145 -137 c3 -5 -3 -10 -14 -10 -12 0 -21 5 -21 10 0 6 6 10 14 10 8 0 18 -4
21 -10z m35 -33 c0 -11 -55 -67 -66 -67 -2 0 -4 9 -4 19 0 11 -5 23 -10 26 -6
4 -8 11 -4 16 4 6 11 5 20 -2 12 -10 18 -9 32 4 20 20 32 22 32 4z m-460 -233
c0 -8 5 -14 10 -14 6 0 10 -7 10 -16 0 -9 -7 -14 -17 -12 -12 3 -17 12 -15 27
1 13 -3 31 -10 40 -12 14 -11 14 5 2 9 -7 17 -20 17 -27z m-41 2 c27 -28 2
-35 -43 -13 -25 12 -42 25 -39 30 7 12 64 0 82 -17z m601 -256 c0 -5 -4 -10
-10 -10 -5 0 -10 5 -10 10 0 6 5 10 10 10 6 0 10 -4 10 -10z m-118 -82 c-7 -7
-12 -8 -12 -2 0 14 12 26 19 19 2 -3 -1 -11 -7 -17z m-87 -88 c3 -5 -1 -10
-10 -10 -9 0 -13 5 -10 10 3 6 8 10 10 10 2 0 7 -4 10 -10z m160 -111 c3 -4
-8 -17 -23 -28 l-29 -20 -22 20 c-11 11 -21 23 -21 28 0 10 89 11 95 0z m58
-16 c10 -10 -13 -33 -34 -33 -21 0 -33 15 -24 30 7 11 48 14 58 3z"/>
<path d="M6482 1453 c-18 -7 -4 -23 19 -23 12 0 19 5 17 12 -5 14 -18 18 -36
11z"/>
<path d="M4930 1425 c0 -14 5 -25 10 -25 6 0 10 11 10 25 0 14 -4 25 -10 25
-5 0 -10 -11 -10 -25z"/>
<path d="M4958 1363 c-10 -2 -21 -17 -24 -31 -4 -15 -22 -43 -39 -63 -25 -27
-31 -43 -28 -63 l5 -26 54 46 c52 44 54 49 54 95 0 27 -1 48 -2 48 -2 -1 -11
-3 -20 -6z"/>
<path d="M6288 1293 c-19 -21 -33 -44 -31 -51 3 -7 -1 -10 -10 -7 -7 3 -20 -1
-27 -10 -7 -8 -20 -15 -29 -15 -9 0 33 -48 97 -111 l114 -112 64 64 63 63 -47
52 c-26 29 -69 78 -95 108 -27 31 -52 56 -56 56 -4 0 -23 -17 -43 -37z"/>
<path d="M2061 1172 l1 -150 106 -104 c59 -58 120 -113 135 -123 44 -29 23
-29 -39 -1 -31 14 -75 29 -96 33 -22 3 -42 12 -45 19 -3 8 -13 14 -22 14 -9 0
-22 5 -27 10 -15 15 -25 -148 -17 -268 6 -92 6 -93 34 -99 16 -3 26 -10 23
-15 -4 -5 -17 -7 -30 -4 -19 5 -24 2 -24 -11 0 -13 16 -23 60 -36 39 -11 60
-23 60 -32 0 -8 8 -15 18 -16 59 -2 86 -9 109 -30 15 -13 23 -18 18 -10 -6 10
-2 12 16 6 37 -11 129 -65 129 -76 0 -12 -17 -12 -25 1 -3 6 -11 10 -16 10 -6
0 -7 -5 -4 -10 7 -11 -41 7 -64 24 -11 8 -13 8 -10 -3 3 -8 26 -25 52 -39 26
-13 46 -27 43 -29 -2 -3 -14 0 -25 7 -17 8 -21 8 -21 -4 0 -11 19 -16 73 -21
79 -8 687 -3 687 5 0 3 -39 50 -85 105 -47 55 -88 110 -91 122 -7 26 -24 31
-24 8 0 -13 -35 -15 -257 -15 -234 -1 -255 -2 -228 -16 17 -8 22 -12 13 -10
-49 14 -118 18 -118 7 0 -6 8 -11 18 -12 9 -1 2 -5 -16 -9 -37 -9 -114 10
-120 28 -2 7 8 12 27 12 16 0 33 5 36 10 3 6 -1 10 -9 10 -9 0 -16 5 -16 10 0
9 20 8 73 -7 16 -4 17 13 17 260 0 234 -2 266 -17 278 -9 8 -34 39 -56 69 -33
44 -181 197 -234 242 -10 8 -13 -21 -12 -140z m57 -80 c3 -9 -2 -13 -14 -10
-9 1 -19 9 -22 16 -3 9 2 13 14 10 9 -1 19 -9 22 -16z m38 -49 c-10 -11 -37
-12 -30 -2 3 5 12 9 21 9 9 0 13 -3 9 -7z m29 -91 c-5 -5 -45 36 -45 46 0 3
11 -5 25 -18 14 -13 23 -26 20 -28z m75 -58 c0 -14 -3 -14 -15 -4 -8 7 -15 14
-15 16 0 2 7 4 15 4 8 0 15 -7 15 -16z m275 -502 c-3 -3 -11 0 -18 7 -9 10 -8
11 6 5 10 -3 15 -9 12 -12z"/>
<path d="M635 1220 c3 -5 11 -10 16 -10 6 0 7 5 4 10 -3 6 -11 10 -16 10 -6 0
-7 -4 -4 -10z"/>
<path d="M672 1199 c2 -7 10 -15 17 -17 8 -3 12 1 9 9 -2 7 -10 15 -17 17 -8
3 -12 -1 -9 -9z"/>
<path d="M468 1182 c-24 -3 -50 -32 -29 -32 5 0 18 -3 28 -7 10 -3 15 -3 11 2
-4 4 0 14 10 21 21 15 15 20 -20 16z"/>
<path d="M526 1144 c-9 -22 -8 -24 9 -24 8 0 15 6 15 14 0 22 -17 28 -24 10z"/>
<path d="M370 1141 c0 -6 5 -13 10 -16 6 -3 10 1 10 9 0 9 -4 16 -10 16 -5 0
-10 -4 -10 -9z"/>
<path d="M4837 1122 c-2 -10 16 -38 45 -68 l49 -50 2 -240 2 -239 48 -3 c36
-2 49 1 53 13 4 9 16 21 28 25 16 7 8 9 -31 9 l-53 1 0 228 0 228 -55 54 c-58
57 -81 68 -88 42z"/>
<path d="M3576 1033 c-4 -27 -11 -79 -16 -118 -5 -38 -9 -132 -10 -207 l0
-138 -32 0 c-28 0 -33 -3 -33 -25 0 -23 3 -25 53 -25 l52 0 0 38 c2 254 0 522
-4 522 -2 0 -6 -21 -10 -47z"/>
<path d="M4051 748 c0 -227 1 -232 17 -195 10 21 21 35 25 31 4 -4 7 72 7 169
l0 177 131 0 c127 0 131 -1 165 -27 l34 -28 0 -130 c0 -134 5 -160 29 -146 7
5 11 13 7 19 -3 6 -2 13 4 17 6 4 10 59 10 137 0 115 -2 129 -15 118 -13 -10
-15 -9 -15 12 0 14 -12 36 -28 51 l-28 27 -172 0 -172 0 1 -232z"/>
<path d="M735 949 c-4 -6 -5 -107 -4 -225 l4 -214 41 0 c27 0 44 5 47 14 3 8
16 16 29 19 13 2 2 5 -25 6 l-47 1 2 178 3 177 136 3 135 3 32 -40 c32 -39 32
-41 32 -148 l0 -109 -33 -32 c-31 -30 -38 -32 -104 -32 -40 0 -75 -5 -78 -11
-4 -6 -17 -14 -29 -19 -14 -6 15 -9 85 -9 l105 -1 49 51 48 50 5 120 5 121
-54 54 -53 54 -163 0 c-104 0 -164 -4 -168 -11z"/>
<path d="M368 896 c-20 -15 -21 -20 -19 -258 l2 -198 -41 0 c-22 0 -40 -4 -40
-10 0 -5 6 -10 14 -10 8 0 22 -7 31 -16 14 -14 20 -15 40 -4 13 7 28 10 33 6
5 -3 12 1 16 9 9 23 26 18 26 -9 0 -24 19 -35 66 -40 21 -2 73 -44 74 -58 0
-11 -48 -10 -86 1 -17 5 -37 5 -45 0 -14 -8 -8 -11 81 -44 l35 -13 -34 -15
c-33 -14 -28 -15 130 -22 219 -10 230 -8 158 28 -114 55 -313 197 -298 211 8
7 96 -39 134 -71 21 -18 51 -35 67 -38 15 -4 30 -11 33 -16 11 -16 25 -10 35
15 8 22 12 23 52 16 24 -5 51 -12 61 -15 22 -9 90 36 105 70 l12 25 -170 0
-170 0 0 88 c-1 48 -1 149 0 224 l1 137 -33 6 c-45 7 -77 3 -82 -11 -6 -15
-150 -49 -166 -39 -14 8 16 45 37 45 7 0 13 4 13 8 0 14 -53 12 -72 -2z m262
-76 c0 -5 -4 -10 -10 -10 -5 0 -10 5 -10 10 0 6 5 10 10 10 6 0 10 -4 10 -10z
m-7 -85 c10 -14 15 -25 11 -25 -11 0 -44 32 -44 42 0 15 15 8 33 -17z m-78
-75 c22 -21 51 -43 64 -50 22 -11 22 -13 7 -22 -13 -7 -30 1 -78 39 -33 26
-72 64 -87 83 l-26 34 40 -23 c22 -13 58 -41 80 -61z m55 -332 c22 -24 26 -38
10 -38 -6 0 -14 8 -17 18 -4 9 -14 22 -22 29 -10 8 -12 12 -4 13 7 0 21 -10
33 -22z"/>
<path d="M4110 555 c-7 -8 -16 -12 -21 -9 -5 3 -9 -2 -9 -10 0 -11 9 -16 28
-16 30 0 52 16 52 37 0 18 -35 16 -50 -2z"/>
<path d="M4174 518 c4 -24 14 -46 22 -51 12 -7 11 -12 -6 -37 -24 -33 -27 -90
-5 -90 7 0 18 -8 24 -17 6 -12 9 20 6 102 -3 147 -1 135 -26 135 -20 0 -21 -4
-15 -42z"/>
<path d="M3431 318 l-1 -198 371 0 c221 0 368 4 365 9 -4 5 -1 11 6 13 6 2 8
10 4 16 -5 9 -96 12 -352 12 l-344 0 0 119 c0 68 -4 122 -10 126 -5 3 -16 27
-24 53 -14 45 -15 37 -15 -150z"/>
<path d="M5071 451 c-17 -41 -21 -70 -21 -165 l0 -116 -30 0 c-25 0 -30 -4
-30 -25 0 -24 3 -25 55 -25 l55 0 0 190 c0 105 -2 190 -4 190 -2 0 -13 -22
-25 -49z"/>
<path d="M1950 430 c0 -5 16 -10 35 -10 19 0 35 5 35 10 0 6 -16 10 -35 10
-19 0 -35 -4 -35 -10z"/>
<path d="M5566 415 c-3 -9 0 -15 9 -15 8 0 15 7 15 15 0 8 -4 15 -9 15 -5 0
-11 -7 -15 -15z"/>
<path d="M2012 409 c-10 -4 -24 -14 -31 -23 -7 -9 -20 -16 -27 -16 -9 0 -14
-12 -14 -35 0 -32 7 -40 32 -36 4 0 25 -6 48 -14 32 -11 47 -12 63 -3 16 8 22
8 25 -1 2 -6 12 -11 22 -11 9 0 23 -7 30 -15 7 -8 23 -15 36 -15 12 0 26 -4
29 -10 3 -5 26 -10 51 -10 34 0 44 4 44 16 0 11 6 15 20 11 11 -3 23 -1 26 4
3 5 -4 9 -14 9 -21 0 -36 25 -26 42 7 12 -14 28 -36 28 -8 0 -20 -12 -27 -26
-11 -24 -10 -27 17 -37 35 -13 39 -27 10 -27 -11 0 -23 7 -26 15 -4 8 -12 15
-20 15 -8 0 -14 7 -14 15 0 8 -4 15 -10 15 -5 0 -10 7 -10 16 0 10 -6 14 -17
10 -18 -5 -68 -9 -90 -7 -19 1 -16 51 2 51 21 0 19 26 -2 36 -23 10 -67 12
-91 3z m25 -21 c-3 -8 -6 -5 -6 6 -1 11 2 17 5 13 3 -3 4 -12 1 -19z m9 -18
c27 0 41 -17 26 -32 -10 -10 -82 17 -82 31 0 15 14 21 24 11 5 -5 20 -10 32
-10z m163 -106 c-15 -18 -16 -18 -21 11 -4 21 -3 23 14 14 15 -8 17 -13 7 -25z"/>
<path d="M4432 390 c0 -19 2 -27 5 -17 2 9 2 25 0 35 -3 9 -5 1 -5 -18z"/>
<path d="M1240 403 c0 -5 14 -17 30 -28 34 -23 40 -58 13 -74 -16 -8 -15 -11
10 -20 15 -6 27 -16 27 -23 0 -7 29 16 65 52 57 56 62 65 47 76 -9 6 -22 10
-28 7 -7 -2 -15 0 -19 6 -7 12 -145 15 -145 4z"/>
<path d="M2135 380 c-8 -13 15 -24 27 -12 6 6 4 11 -6 15 -8 3 -18 2 -21 -3z"/>
<path d="M2210 346 c0 -8 4 -17 9 -20 15 -10 40 5 34 20 -7 18 -43 18 -43 0z"/>
<path d="M388 313 c7 -3 16 -2 19 1 4 3 -2 6 -13 5 -11 0 -14 -3 -6 -6z"/>
<path d="M4431 264 c0 -11 3 -14 6 -6 3 7 2 16 -1 19 -3 4 -6 -2 -5 -13z"/>
<path d="M4463 248 c-7 -16 -17 -28 -23 -28 -5 0 -10 -22 -10 -50 l0 -50 189
0 188 0 -5 25 -4 25 -159 0 -158 0 -3 53 c-3 50 -4 51 -15 25z"/>
<path d="M236 244 c-3 -9 -6 -18 -6 -20 0 -2 39 -4 86 -4 59 0 83 3 78 11 -3
6 -19 9 -35 5 -22 -4 -29 -2 -29 9 0 22 -86 21 -94 -1z"/>
<path d="M4202 211 c-8 -5 -12 -21 -10 -39 2 -23 6 -29 16 -23 8 5 12 21 10
39 -2 23 -6 29 -16 23z"/>
<path d="M4872 148 c6 -43 77 -34 78 10 0 7 -15 12 -41 12 -36 0 -40 -2 -37
-22z"/>
</g>
</svg>
